<svg
viewBox="0 0 148 34"
xmlns="http://www.w3.org/2000/svg"
xmlnsSvg="http://www.w3.org/2000/svg"
version="1.1"
>
<g class="layer">
  <title>Layer 1</title>
  <path
    id="svg_1"
    d="m0,4.05q0,-0.8 0.05,-1.59t0.14,-1.55q0.07,-0.4 0.61,-0.57t0.89,-0.17l0.41,0.03q0.5,0.07 1,-0.06t1,-0.14q1.17,0 2.6,0.26t2.69,0.87t2.11,1.61t0.86,2.47t-0.89,2.75t-2.24,2.23t-2.9,1.52t-2.86,0.54q0.14,3.3 0.39,6.55t0.84,6.49l0.04,0.22q0,0.24 -0.22,0.4t-0.5,0.25t-0.59,0.12t-0.49,0.04q-0.43,0 -1.03,-0.16t-0.75,-0.65q-0.39,-1.5 -0.61,-3.3t-0.33,-3.77t-0.14,-3.96t-0.04,-3.88l0,-3.85q0,-0.63 -0.02,-1.32t-0.02,-1.38zm3.23,-2.77q0,2.34 0.05,4.68t0.12,4.67q1.01,-0.21 2.06,-0.73t1.9,-1.24t1.37,-1.63t0.52,-1.92q0,-0.91 -0.45,-1.62t-1.18,-1.23q-0.7,-0.5 -1.58,-0.77q-0.79,-0.24 -1.54,-0.24l-0.19,0l-1.08,0.03zm12.28,18.39q0,-0.97 0.25,-2.01t0.79,-1.86t1.36,-1.35t1.98,-0.52q0.87,0 1.84,0.3t1.77,0.85t1.3,1.36t0.51,1.79q0,1.2 -0.44,2.28t-1.22,1.92t-1.84,1.33t-2.28,0.49q-1.01,0 -1.76,-0.37t-1.26,-0.98t-0.75,-1.45t-0.25,-1.78zm2.52,-0.03q0,0.3 0.09,0.9t0.28,1.17t0.49,0.99t0.73,0.39q0.9,-0.1 1.49,-0.59t0.96,-1.19t0.51,-1.52t0.15,-1.56q0,-0.94 -0.37,-1.57t-1.21,-1.02q0,0.03 0.04,0.03t0.03,-0.03l-0.42,-0.11q-0.18,-0.06 -0.42,-0.15t-0.49,-0.38q-0.67,0.24 -1.03,0.62t-0.56,0.91t-0.23,1.29t-0.04,1.82zm10.43,-4.7q0,-0.7 0.41,-1.21t1,-0.82t1.29,-0.47t1.3,-0.15q0.46,0 1.23,0.13t1.51,0.41t1.27,0.72t0.54,1.04q0,0.28 -0.21,0.49t-0.42,0.22q-0.47,0 -0.84,-0.3t-0.78,-0.64t-0.88,-0.63t-1.08,-0.3t-1.08,0.39t-0.49,1.01q0,1.05 0.74,2.05t1.61,2.1t1.62,2.31t0.73,2.69q0,0.63 -0.26,1.06t-0.7,0.71t-0.99,0.42t-1.06,0.15q-0.56,0 -1.31,-0.27t-1.42,-0.7t-1.12,-1.01t-0.45,-1.22q0,-0.31 0.43,-0.39t0.64,-0.09q0.11,0 0.32,0.07t0.42,0.16t0.37,0.18t0.12,0.23q0.17,0.2 0.53,0.6t0.7,0.65t0.61,0.18t0.27,-0.77q0,-1.33 -0.72,-2.45t-1.57,-2.19t-1.56,-2.12t-0.72,-2.24zm11.34,-6.45q0,-0.24 0.52,-0.41t1.16,-0.28t1.26,-0.16t0.82,-0.09q0,-0.46 0.04,-0.93t0.19,-0.84t0.48,-0.58t0.94,-0.23q0.49,0 0.75,0.12t0.54,0.5q0.07,0.2 0.07,0.39l0,0.57t-0.03,0.59q0.63,-0.07 1.25,-0.16t1.26,-0.09q0.46,0 0.63,0.01t0.34,0.41q0.14,0.4 -0.33,0.6t-1.13,0.31t-1.3,0.15t-0.79,0.06q-0.21,2.93 -0.42,5.82t-0.21,5.86q0,1.34 0.08,2.76t0.48,2.68q0.1,0.39 0.34,0.73t0.24,0.74q0,0.24 -0.19,0.37t-0.45,0.24t-0.53,0.11t-0.43,0.01q-1.08,0 -1.64,-0.8t-0.82,-1.92t-0.26,-2.3t-0.02,-1.91q0,-1.51 0.06,-3.08t0.15,-3.11t0.24,-3.01t0.36,-2.73q-0.6,0.06 -1.18,0.15t-1.17,0.09q-0.13,0 -0.36,-0.02t-0.44,-0.09t-0.35,-0.18t-0.15,-0.35zm13.07,10.26q0,-0.94 0.18,-2.01t0.62,-1.96t1.2,-1.47t1.97,-0.58q0.8,0 1.55,0.27t1.42,0.72q0.21,-0.34 0.65,-0.42t0.79,-0.07q0.13,0 0.38,0.01t0.49,0.11t0.42,0.2t0.21,0.34q0.14,1.2 0.19,2.39t0.15,2.36q0.17,2.21 0.53,4.36t0.36,4.36q0,1.04 -0.09,2.26t-0.5,2.24t-1.17,1.72t-2.14,0.68q-1.23,0 -1.88,-0.43t-1.19,-1.46q0.03,-0.34 0.43,-0.45t0.7,-0.12q0.27,0 0.55,0.06t0.45,0.17l0.43,0.27q0.63,-1.3 0.77,-2.84t0.14,-2.97q0,-1.2 -0.12,-2.37t-0.24,-2.35q-1.2,2.17 -3.64,2.17q-1.13,0 -1.84,-0.48t-1.09,-1.21t-0.53,-1.66t-0.15,-1.84zm2.11,0.15q0,0.43 0.03,1.1t0.18,1.33t0.42,1.12t0.77,0.47q0.94,0 1.48,-0.74t0.87,-1.75t0.5,-2.1t0.48,-1.79q-0.04,-0.24 -0.04,-0.47l0,-0.47q-0.39,-0.73 -1.14,-1.27t-1.56,-0.73q-0.1,-0.01 -0.18,-0.01q-0.48,0 -0.79,0.56q-0.39,0.68 -0.61,1.63t-0.32,1.87t-0.09,1.25zm12.5,3.57q0,-0.6 0.41,-0.76t0.89,-0.16q0.84,0 1.42,0.75t1.1,1.65t1.03,1.65t1.22,0.75q0.53,0 0.96,-0.26t0.75,-0.67t0.49,-0.9t0.17,-1q0,-1.3 -0.52,-2.69t-1.33,-2.85t-1.72,-3.01t-1.71,-3.13t-1.33,-3.24t-0.53,-3.32q0,-2.51 1.5,-3.9t3.97,-1.38q0.83,0 1.69,0.24t1.57,0.72t1.17,1.18t0.45,1.64q0,0.3 -0.45,0.4t-0.66,0.09q-0.3,0 -0.66,-0.07t-0.46,-0.42t-0.29,-0.79t-0.47,-0.83t-0.67,-0.66t-0.85,-0.29q-0.77,0 -1.3,0.32t-0.88,0.85t-0.49,1.18t-0.16,1.36q0,1.64 0.56,3.31t1.4,3.31t1.82,3.26t1.82,3.13t1.4,2.97t0.57,2.75q0,1.16 -0.55,1.97t-1.38,1.3t-1.86,0.74t-1.99,0.23q-1.04,0 -2.14,-0.42t-1.96,-1.15t-1.44,-1.72t-0.56,-2.13zm15.37,-3.12q0,-1.17 0.32,-2.24t0.95,-1.93t1.58,-1.35t2.2,-0.5q0.76,0 1.7,0.23t1.75,0.68t1.37,1.16t0.54,1.6q0,0.43 -0.14,0.65t-0.59,0.23l-0.19,-0.04q0.49,1.33 0.85,2.74t0.7,2.8q0.14,0.27 0.21,0.49t0.07,0.41q0,0.28 -0.16,0.46t-0.4,0.26t-0.51,0.12t-0.47,0.04q-0.74,0 -1.1,-0.26t-0.53,-0.7t-0.2,-1t-0.14,-1.12q-0.2,0.67 -0.53,1.3t-0.79,1.14t-1.07,0.8t-1.38,0.3q-1.13,0 -1.9,-0.65t-1.24,-1.6t-0.68,-2.02t-0.22,-2zm2.43,-0.24q0,0.63 0.09,1.33t0.28,1.38t0.5,1.29t0.77,1.07q0.84,-0.9 1.24,-2.2t0.72,-2.51t0.72,-2.06t1.24,-0.87q0.53,0 0.88,0.19q-0.17,-0.43 -0.56,-0.83t-0.88,-0.73t-1.01,-0.55t-0.98,-0.21q-0.14,0 -0.32,0.04t-0.28,0.01q-0.7,0.2 -1.15,0.71t-0.74,1.18t-0.4,1.41t-0.12,1.35zm12.39,-0.17q0,-1.58 0.36,-3.09t0.63,-3.02q0.07,-0.39 0.54,-0.48t0.79,-0.1q0.56,0 0.91,0.17q0.13,0.07 0.25,0.16t0.12,0.22q0,1.47 -0.35,2.87t-0.35,2.97q0,0.53 0.08,1t0.14,0.94l0.11,0.49q0,0.14 0.01,0.24t0.05,0.24q0,0.31 -0.43,0.42t-0.76,0.11q-0.5,0 -0.92,-0.2t-0.65,-0.67l-0.24,-0.5q-0.21,-0.39 -0.21,-0.88t-0.08,-0.89zm1.09,-10.29l0,-0.33q0,-0.8 0.4,-1.43t1.21,-0.64q0.1,0 0.19,0.02t0.2,0.02q0.2,0.03 0.54,0.16t0.33,0.4l0,0.04q-0.07,0.13 -0.08,0.28t-0.09,0.25l0.03,-0.04q-0.2,0.53 -0.33,0.86t-0.28,0.52t-0.39,0.28t-0.65,0.09q-0.07,0 -0.24,-0.02t-0.37,-0.07t-0.33,-0.14t-0.14,-0.25zm6.37,16.76q0,-0.49 0.04,-1.04t0.08,-1.03l0.1,-2.56q0.17,-3.08 0.42,-6.05t0.42,-6.01q0.1,-1.68 0.15,-3.29t0.16,-3.29q-0.07,-0.14 -0.07,-0.19q0,-0.24 0.18,-0.38t0.42,-0.23t0.5,-0.13t0.4,-0.03l0.39,0q0.53,0.07 0.77,0.33t0.31,0.63t0.03,0.79t-0.03,0.78q0,2.48 -0.12,5.05t-0.27,5.16t-0.28,5.18t-0.13,5.12l0,1.19q0,0.81 -0.46,1.06t-1.25,0.26q-0.7,0 -1.23,-0.31t-0.53,-1.01z"
    fill="#3289c7"
  />
  <path
    id="svg_2"
    d="m117.52,8.74q0,-0.69 0.06,-1.78t0.15,-2.26t0.22,-2.2t0.29,-1.6q0.06,-0.24 0.28,-0.29t0.45,-0.05q0.3,0 0.52,0.11t0.22,0.47q0,1.78 -0.22,3.56t-0.24,3.56q0.3,-0.46 0.78,-0.69t1.02,-0.23q0.74,0 1.27,0.3t0.87,0.78t0.5,1.11t0.16,1.29q0,0.36 -0.08,0.9t-0.21,1.14t-0.38,1.19t-0.53,1.06t-0.71,0.76t-0.87,0.29q-0.1,0 -0.26,-0.03t-0.33,-0.09t-0.26,-0.15t-0.11,-0.23q0,-0.16 0.19,-0.22t0.31,-0.06q0.44,-0.2 0.78,-0.82t0.57,-1.36t0.35,-1.47t0.11,-1.19q0,-0.26 -0.08,-0.7t-0.23,-0.87t-0.44,-0.74t-0.66,-0.31q-0.46,0 -0.74,0.47t-0.43,1.1t-0.21,1.3t-0.05,1.05q0,0.25 0.08,0.48t0.19,0.48t0.19,0.49t0.09,0.49q0,0.12 -0.11,0.2t-0.23,0.13t-0.29,0.06t-0.23,0.01q-0.56,0 -0.77,-0.26t-0.37,-0.74q-0.35,-1.08 -0.48,-2.2t-0.13,-2.24zm8.33,3.24q0,-0.69 0.15,-1.61t0.51,-1.76t0.95,-1.41t1.49,-0.58q0.84,0 1.26,0.48t0.42,1.3q0,0.54 -0.2,1.18t-0.57,1.21t-0.88,0.95t-1.13,0.38l-0.26,-0.02q0,0.27 0.08,0.71t0.23,0.89t0.39,0.77t0.58,0.33q0.5,0 0.96,-0.4t0.87,-0.89t0.76,-0.89t0.65,-0.4q0.15,0 0.32,0.05t0.18,0.27q0,0.14 -0.07,0.23t-0.13,0.19q-0.3,0.52 -0.66,0.99t-0.81,0.85t-0.98,0.6t-1.17,0.22q-0.84,0 -1.4,-0.3t-0.9,-0.8t-0.49,-1.16t-0.15,-1.38zm1.74,-0.74l0.28,0.24q0.19,0.18 0.39,0.08t0.35,-0.36t0.29,-0.64t0.23,-0.78t0.15,-0.78t0.05,-0.64l0,-0.33t-0.03,-0.35t-0.1,-0.28t-0.23,-0.14q-0.05,-0.01 -0.09,-0.01q-0.33,0 -0.56,0.42q-0.26,0.47 -0.41,1.14t-0.23,1.37t-0.09,1.06zm6.02,-5.86q0,-0.14 0.29,-0.24t0.66,-0.16t0.72,-0.09t0.48,-0.05q0,-0.26 0.02,-0.53t0.1,-0.48t0.28,-0.34t0.53,-0.13q0.29,0 0.43,0.07t0.32,0.29q0.03,0.11 0.03,0.22l0,0.33t-0.01,0.33q0.36,-0.03 0.71,-0.09t0.72,-0.05q0.26,0 0.36,0.01t0.2,0.23q0.08,0.23 -0.19,0.34t-0.65,0.18t-0.74,0.09t-0.45,0.03q-0.12,1.68 -0.24,3.33t-0.13,3.35q0,0.76 0.05,1.57t0.28,1.53q0.06,0.23 0.19,0.42t0.14,0.42q0,0.14 -0.11,0.22t-0.26,0.13t-0.3,0.06t-0.25,0.01q-0.61,0 -0.94,-0.46t-0.46,-1.1t-0.15,-1.31t-0.01,-1.09q0,-0.86 0.03,-1.76t0.09,-1.78t0.13,-1.72t0.21,-1.56q-0.34,0.04 -0.67,0.09t-0.67,0.05q-0.08,0 -0.21,-0.01t-0.25,-0.05t-0.2,-0.11t-0.08,-0.19zm7.46,6.2q0,-0.67 0.19,-1.28t0.54,-1.1t0.9,-0.77t1.26,-0.29q0.44,0 0.97,0.13t1,0.39t0.78,0.66t0.31,0.92q0,0.24 -0.08,0.37t-0.34,0.13l-0.11,-0.02q0.29,0.76 0.49,1.56t0.4,1.6q0.08,0.16 0.12,0.28t0.04,0.24q0,0.16 -0.09,0.26t-0.23,0.15t-0.29,0.07t-0.27,0.02q-0.42,0 -0.63,-0.15t-0.3,-0.4t-0.11,-0.57t-0.08,-0.64q-0.12,0.38 -0.31,0.74t-0.45,0.65t-0.61,0.46t-0.79,0.17q-0.64,0 -1.08,-0.37t-0.71,-0.91t-0.39,-1.16t-0.13,-1.14zm1.39,-0.14q0,0.36 0.05,0.76t0.16,0.79t0.29,0.74t0.44,0.61q0.48,-0.52 0.71,-1.26t0.41,-1.43t0.41,-1.18t0.71,-0.49q0.3,0 0.5,0.1q-0.09,-0.24 -0.32,-0.47t-0.5,-0.42t-0.58,-0.31t-0.56,-0.12q-0.08,0 -0.18,0.02t-0.16,0q-0.4,0.12 -0.66,0.41t-0.42,0.68t-0.23,0.8t-0.07,0.77z"
    fill="#"
  />
</g>
</svg>